<?xml version="1.0" encoding="UTF-8"?>
<svg width="128" height="128" viewBox="0 0 128 128" xmlns="http://www.w3.org/2000/svg">
    <!-- 背景圆形 -->
    <circle cx="64" cy="64" r="60" fill="#007bff" />
    
    <!-- 思维导图图标 -->
    <g fill="none" stroke="#ffffff" stroke-width="6" stroke-linecap="round" stroke-linejoin="round">
        <!-- 中心节点 -->
        <circle cx="64" cy="64" r="12" fill="#ffffff"/>
        
        <!-- 连接线和节点 -->
        <!-- 右侧分支 -->
        <path d="M 76 64 L 100 64" />
        <circle cx="108" cy="64" r="8" fill="#ffffff"/>
        
        <!-- 左侧分支 -->
        <path d="M 52 64 L 28 64" />
        <circle cx="20" cy="64" r="8" fill="#ffffff"/>
        
        <!-- 上方分支 -->
        <path d="M 64 52 L 64 28" />
        <circle cx="64" cy="20" r="8" fill="#ffffff"/>
        
        <!-- 下方分支 -->
        <path d="M 64 76 L 64 100" />
        <circle cx="64" cy="108" r="8" fill="#ffffff"/>
        
        <!-- 右上分支 -->
        <path d="M 72 56 L 92 36" />
        <circle cx="98" cy="30" r="8" fill="#ffffff"/>
        
        <!-- 右下分支 -->
        <path d="M 72 72 L 92 92" />
        <circle cx="98" cy="98" r="8" fill="#ffffff"/>
        
        <!-- 左上分支 -->
        <path d="M 56 56 L 36 36" />
        <circle cx="30" cy="30" r="8" fill="#ffffff"/>
        
        <!-- 左下分支 -->
        <path d="M 56 72 L 36 92" />
        <circle cx="30" cy="98" r="8" fill="#ffffff"/>
    </g>
</svg> 